<svg xmlns="http://www.w3.org/2000/svg" xmlns:xlink="http://www.w3.org/1999/xlink" width="40" zoomAndPan="magnify" viewBox="0 0 30 30.000001" height="40" preserveAspectRatio="xMidYMid meet" version="1.0"><defs><clipPath id="1af1457a77"><path d="M 8 21 L 9 21 L 9 23 L 8 23 Z M 8 21 " clip-rule="nonzero"/></clipPath><clipPath id="4254ae891d"><path d="M 9.949219 0.34375 L 26.054688 4.730469 L 19.570312 28.539062 L 3.464844 24.152344 Z M 9.949219 0.34375 " clip-rule="nonzero"/></clipPath><clipPath id="cf82bb808d"><path d="M 9.949219 0.34375 L 26.054688 4.730469 L 19.570312 28.539062 L 3.464844 24.152344 Z M 9.949219 0.34375 " clip-rule="nonzero"/></clipPath><clipPath id="8e210be839"><path d="M 7 22 L 8 22 L 8 23 L 7 23 Z M 7 22 " clip-rule="nonzero"/></clipPath><clipPath id="7bf7835499"><path d="M 9.949219 0.34375 L 26.054688 4.730469 L 19.570312 28.539062 L 3.464844 24.152344 Z M 9.949219 0.34375 " clip-rule="nonzero"/></clipPath><clipPath id="b9d7a2aca0"><path d="M 9.949219 0.34375 L 26.054688 4.730469 L 19.570312 28.539062 L 3.464844 24.152344 Z M 9.949219 0.34375 " clip-rule="nonzero"/></clipPath><clipPath id="d30479481f"><path d="M 7 24 L 8 24 L 8 25 L 7 25 Z M 7 24 " clip-rule="nonzero"/></clipPath><clipPath id="6f74a939a0"><path d="M 9.949219 0.34375 L 26.054688 4.730469 L 19.570312 28.539062 L 3.464844 24.152344 Z M 9.949219 0.34375 " clip-rule="nonzero"/></clipPath><clipPath id="852bd4999e"><path d="M 9.949219 0.34375 L 26.054688 4.730469 L 19.570312 28.539062 L 3.464844 24.152344 Z M 9.949219 0.34375 " clip-rule="nonzero"/></clipPath><clipPath id="e94d30d899"><path d="M 6 24 L 7 24 L 7 25 L 6 25 Z M 6 24 " clip-rule="nonzero"/></clipPath><clipPath id="636d26b7d9"><path d="M 9.949219 0.34375 L 26.054688 4.730469 L 19.570312 28.539062 L 3.464844 24.152344 Z M 9.949219 0.34375 " clip-rule="nonzero"/></clipPath><clipPath id="060c964595"><path d="M 9.949219 0.34375 L 26.054688 4.730469 L 19.570312 28.539062 L 3.464844 24.152344 Z M 9.949219 0.34375 " clip-rule="nonzero"/></clipPath><clipPath id="66e7a135e4"><path d="M 5 24 L 6 24 L 6 25 L 5 25 Z M 5 24 " clip-rule="nonzero"/></clipPath><clipPath id="1efebabac0"><path d="M 9.949219 0.34375 L 26.054688 4.730469 L 19.570312 28.539062 L 3.464844 24.152344 Z M 9.949219 0.34375 " clip-rule="nonzero"/></clipPath><clipPath id="08d188becc"><path d="M 9.949219 0.34375 L 26.054688 4.730469 L 19.570312 28.539062 L 3.464844 24.152344 Z M 9.949219 0.34375 " clip-rule="nonzero"/></clipPath><clipPath id="99f60d3597"><path d="M 20 6 L 21 6 L 21 7 L 20 7 Z M 20 6 " clip-rule="nonzero"/></clipPath><clipPath id="07eb5a9963"><path d="M 9.949219 0.34375 L 26.054688 4.730469 L 19.570312 28.539062 L 3.464844 24.152344 Z M 9.949219 0.34375 " clip-rule="nonzero"/></clipPath><clipPath id="a11fbb127d"><path d="M 9.949219 0.34375 L 26.054688 4.730469 L 19.570312 28.539062 L 3.464844 24.152344 Z M 9.949219 0.34375 " clip-rule="nonzero"/></clipPath><clipPath id="3885a0d7d8"><path d="M 21 3 L 22 3 L 22 4 L 21 4 Z M 21 3 " clip-rule="nonzero"/></clipPath><clipPath id="6abff03eb5"><path d="M 9.949219 0.34375 L 26.054688 4.730469 L 19.570312 28.539062 L 3.464844 24.152344 Z M 9.949219 0.34375 " clip-rule="nonzero"/></clipPath><clipPath id="26613e3f39"><path d="M 9.949219 0.34375 L 26.054688 4.730469 L 19.570312 28.539062 L 3.464844 24.152344 Z M 9.949219 0.34375 " clip-rule="nonzero"/></clipPath><clipPath id="3fa4f7f51f"><path d="M 4 23 L 5 23 L 5 24 L 4 24 Z M 4 23 " clip-rule="nonzero"/></clipPath><clipPath id="ee1eda4315"><path d="M 9.949219 0.34375 L 26.054688 4.730469 L 19.570312 28.539062 L 3.464844 24.152344 Z M 9.949219 0.34375 " clip-rule="nonzero"/></clipPath><clipPath id="283baf68bf"><path d="M 9.949219 0.34375 L 26.054688 4.730469 L 19.570312 28.539062 L 3.464844 24.152344 Z M 9.949219 0.34375 " clip-rule="nonzero"/></clipPath><clipPath id="615029acc3"><path d="M 22 17 L 23 17 L 23 18 L 22 18 Z M 22 17 " clip-rule="nonzero"/></clipPath><clipPath id="c82c30d7e0"><path d="M 9.949219 0.34375 L 26.054688 4.730469 L 19.570312 28.539062 L 3.464844 24.152344 Z M 9.949219 0.34375 " clip-rule="nonzero"/></clipPath><clipPath id="d39b0d89f5"><path d="M 9.949219 0.34375 L 26.054688 4.730469 L 19.570312 28.539062 L 3.464844 24.152344 Z M 9.949219 0.34375 " clip-rule="nonzero"/></clipPath><clipPath id="436db73362"><path d="M 7 24 L 8 24 L 8 25 L 7 25 Z M 7 24 " clip-rule="nonzero"/></clipPath><clipPath id="a84d3aea2d"><path d="M 9.949219 0.34375 L 26.054688 4.730469 L 19.570312 28.539062 L 3.464844 24.152344 Z M 9.949219 0.34375 " clip-rule="nonzero"/></clipPath><clipPath id="adb75b2ae9"><path d="M 9.949219 0.34375 L 26.054688 4.730469 L 19.570312 28.539062 L 3.464844 24.152344 Z M 9.949219 0.34375 " clip-rule="nonzero"/></clipPath><clipPath id="a729cc4c84"><path d="M 9 24 L 10 24 L 10 25 L 9 25 Z M 9 24 " clip-rule="nonzero"/></clipPath><clipPath id="8ae297405d"><path d="M 9.949219 0.34375 L 26.054688 4.730469 L 19.570312 28.539062 L 3.464844 24.152344 Z M 9.949219 0.34375 " clip-rule="nonzero"/></clipPath><clipPath id="223283ce67"><path d="M 9.949219 0.34375 L 26.054688 4.730469 L 19.570312 28.539062 L 3.464844 24.152344 Z M 9.949219 0.34375 " clip-rule="nonzero"/></clipPath><clipPath id="3ac6a7fe61"><path d="M 11 24 L 12 24 L 12 25 L 11 25 Z M 11 24 " clip-rule="nonzero"/></clipPath><clipPath id="9446a75f3d"><path d="M 9.949219 0.34375 L 26.054688 4.730469 L 19.570312 28.539062 L 3.464844 24.152344 Z M 9.949219 0.34375 " clip-rule="nonzero"/></clipPath><clipPath id="0f0e702f2c"><path d="M 9.949219 0.34375 L 26.054688 4.730469 L 19.570312 28.539062 L 3.464844 24.152344 Z M 9.949219 0.34375 " clip-rule="nonzero"/></clipPath><clipPath id="3037eb85f9"><path d="M 13 23 L 14 23 L 14 24 L 13 24 Z M 13 23 " clip-rule="nonzero"/></clipPath><clipPath id="2ff39fd99f"><path d="M 9.949219 0.34375 L 26.054688 4.730469 L 19.570312 28.539062 L 3.464844 24.152344 Z M 9.949219 0.34375 " clip-rule="nonzero"/></clipPath><clipPath id="ca96aad04f"><path d="M 9.949219 0.34375 L 26.054688 4.730469 L 19.570312 28.539062 L 3.464844 24.152344 Z M 9.949219 0.34375 " clip-rule="nonzero"/></clipPath><clipPath id="d0e4b6b181"><path d="M 17 11 L 18 11 L 18 12 L 17 12 Z M 17 11 " clip-rule="nonzero"/></clipPath><clipPath id="2ba44db06a"><path d="M 9.949219 0.34375 L 26.054688 4.730469 L 19.570312 28.539062 L 3.464844 24.152344 Z M 9.949219 0.34375 " clip-rule="nonzero"/></clipPath><clipPath id="7ff0cf260b"><path d="M 9.949219 0.34375 L 26.054688 4.730469 L 19.570312 28.539062 L 3.464844 24.152344 Z M 9.949219 0.34375 " clip-rule="nonzero"/></clipPath><clipPath id="335db80cda"><path d="M 7 24 L 8 24 L 8 25 L 7 25 Z M 7 24 " clip-rule="nonzero"/></clipPath><clipPath id="77d5e3137f"><path d="M 9.949219 0.34375 L 26.054688 4.730469 L 19.570312 28.539062 L 3.464844 24.152344 Z M 9.949219 0.34375 " clip-rule="nonzero"/></clipPath><clipPath id="50ee1444a6"><path d="M 9.949219 0.34375 L 26.054688 4.730469 L 19.570312 28.539062 L 3.464844 24.152344 Z M 9.949219 0.34375 " clip-rule="nonzero"/></clipPath><clipPath id="9f8271599a"><path d="M 11 23 L 12 23 L 12 24 L 11 24 Z M 11 23 " clip-rule="nonzero"/></clipPath><clipPath id="25e76aa53d"><path d="M 9.949219 0.34375 L 26.054688 4.730469 L 19.570312 28.539062 L 3.464844 24.152344 Z M 9.949219 0.34375 " clip-rule="nonzero"/></clipPath><clipPath id="52995a7619"><path d="M 9.949219 0.34375 L 26.054688 4.730469 L 19.570312 28.539062 L 3.464844 24.152344 Z M 9.949219 0.34375 " clip-rule="nonzero"/></clipPath><clipPath id="dd2d751330"><path d="M 12 10 L 13 10 L 13 11 L 12 11 Z M 12 10 " clip-rule="nonzero"/></clipPath><clipPath id="db5f9f94ce"><path d="M 9.949219 0.34375 L 26.054688 4.730469 L 19.570312 28.539062 L 3.464844 24.152344 Z M 9.949219 0.34375 " clip-rule="nonzero"/></clipPath><clipPath id="8ff808421d"><path d="M 9.949219 0.34375 L 26.054688 4.730469 L 19.570312 28.539062 L 3.464844 24.152344 Z M 9.949219 0.34375 " clip-rule="nonzero"/></clipPath><clipPath id="bb87f6d140"><path d="M 12 23 L 13 23 L 13 24 L 12 24 Z M 12 23 " clip-rule="nonzero"/></clipPath><clipPath id="4281124e19"><path d="M 9.949219 0.34375 L 26.054688 4.730469 L 19.570312 28.539062 L 3.464844 24.152344 Z M 9.949219 0.34375 " clip-rule="nonzero"/></clipPath><clipPath id="8bc5bae7ae"><path d="M 9.949219 0.34375 L 26.054688 4.730469 L 19.570312 28.539062 L 3.464844 24.152344 Z M 9.949219 0.34375 " clip-rule="nonzero"/></clipPath><clipPath id="f6367ea6ab"><path d="M 5 23 L 7 23 L 7 24 L 5 24 Z M 5 23 " clip-rule="nonzero"/></clipPath><clipPath id="64aa896841"><path d="M 9.949219 0.34375 L 26.054688 4.730469 L 19.570312 28.539062 L 3.464844 24.152344 Z M 9.949219 0.34375 " clip-rule="nonzero"/></clipPath><clipPath id="e19437c6e6"><path d="M 9.949219 0.34375 L 26.054688 4.730469 L 19.570312 28.539062 L 3.464844 24.152344 Z M 9.949219 0.34375 " clip-rule="nonzero"/></clipPath><clipPath id="880a2b6a7a"><path d="M 4 23 L 6 23 L 6 24 L 4 24 Z M 4 23 " clip-rule="nonzero"/></clipPath><clipPath id="500f095360"><path d="M 9.949219 0.34375 L 26.054688 4.730469 L 19.570312 28.539062 L 3.464844 24.152344 Z M 9.949219 0.34375 " clip-rule="nonzero"/></clipPath><clipPath id="fe08c9a683"><path d="M 9.949219 0.34375 L 26.054688 4.730469 L 19.570312 28.539062 L 3.464844 24.152344 Z M 9.949219 0.34375 " clip-rule="nonzero"/></clipPath><clipPath id="750ba59892"><path d="M 3 3 L 24 3 L 24 26 L 3 26 Z M 3 3 " clip-rule="nonzero"/></clipPath><clipPath id="7cccbbeb58"><path d="M 9.949219 0.34375 L 26.054688 4.730469 L 19.570312 28.539062 L 3.464844 24.152344 Z M 9.949219 0.34375 " clip-rule="nonzero"/></clipPath><clipPath id="f782ce6339"><path d="M 9.949219 0.34375 L 26.054688 4.730469 L 19.570312 28.539062 L 3.464844 24.152344 Z M 9.949219 0.34375 " clip-rule="nonzero"/></clipPath><clipPath id="759ad690cf"><path d="M 14 22 L 15 22 L 15 23 L 14 23 Z M 14 22 " clip-rule="nonzero"/></clipPath><clipPath id="5a6a644642"><path d="M 9.949219 0.34375 L 26.054688 4.730469 L 19.570312 28.539062 L 3.464844 24.152344 Z M 9.949219 0.34375 " clip-rule="nonzero"/></clipPath><clipPath id="b53f2307c2"><path d="M 9.949219 0.34375 L 26.054688 4.730469 L 19.570312 28.539062 L 3.464844 24.152344 Z M 9.949219 0.34375 " clip-rule="nonzero"/></clipPath><clipPath id="805823583b"><path d="M 14 14 L 15 14 L 15 15 L 14 15 Z M 14 14 " clip-rule="nonzero"/></clipPath><clipPath id="4bc1e07659"><path d="M 9.949219 0.34375 L 26.054688 4.730469 L 19.570312 28.539062 L 3.464844 24.152344 Z M 9.949219 0.34375 " clip-rule="nonzero"/></clipPath><clipPath id="3dce9be30c"><path d="M 9.949219 0.34375 L 26.054688 4.730469 L 19.570312 28.539062 L 3.464844 24.152344 Z M 9.949219 0.34375 " clip-rule="nonzero"/></clipPath><clipPath id="4b96c262bb"><path d="M 12 10 L 13 10 L 13 11 L 12 11 Z M 12 10 " clip-rule="nonzero"/></clipPath><clipPath id="72e530b846"><path d="M 9.949219 0.34375 L 26.054688 4.730469 L 19.570312 28.539062 L 3.464844 24.152344 Z M 9.949219 0.34375 " clip-rule="nonzero"/></clipPath><clipPath id="56410f1cae"><path d="M 9.949219 0.34375 L 26.054688 4.730469 L 19.570312 28.539062 L 3.464844 24.152344 Z M 9.949219 0.34375 " clip-rule="nonzero"/></clipPath><clipPath id="30871b1449"><path d="M 6 25 L 8 25 L 8 26 L 6 26 Z M 6 25 " clip-rule="nonzero"/></clipPath><clipPath id="d0a4d7896d"><path d="M 9.949219 0.34375 L 26.054688 4.730469 L 19.570312 28.539062 L 3.464844 24.152344 Z M 9.949219 0.34375 " clip-rule="nonzero"/></clipPath><clipPath id="148274fc93"><path d="M 9.949219 0.34375 L 26.054688 4.730469 L 19.570312 28.539062 L 3.464844 24.152344 Z M 9.949219 0.34375 " clip-rule="nonzero"/></clipPath><clipPath id="fc0c577d2b"><path d="M 8 25 L 9 25 L 9 26 L 8 26 Z M 8 25 " clip-rule="nonzero"/></clipPath><clipPath id="b5e589ab9c"><path d="M 9.949219 0.34375 L 26.054688 4.730469 L 19.570312 28.539062 L 3.464844 24.152344 Z M 9.949219 0.34375 " clip-rule="nonzero"/></clipPath><clipPath id="30e070c792"><path d="M 9.949219 0.34375 L 26.054688 4.730469 L 19.570312 28.539062 L 3.464844 24.152344 Z M 9.949219 0.34375 " clip-rule="nonzero"/></clipPath><clipPath id="5e85143c0a"><path d="M 9 25 L 10 25 L 10 26 L 9 26 Z M 9 25 " clip-rule="nonzero"/></clipPath><clipPath id="f32e59a800"><path d="M 9.949219 0.34375 L 26.054688 4.730469 L 19.570312 28.539062 L 3.464844 24.152344 Z M 9.949219 0.34375 " clip-rule="nonzero"/></clipPath><clipPath id="90ed7b4aea"><path d="M 9.949219 0.34375 L 26.054688 4.730469 L 19.570312 28.539062 L 3.464844 24.152344 Z M 9.949219 0.34375 " clip-rule="nonzero"/></clipPath><clipPath id="e6d8ce5000"><path d="M 6 23 L 7 23 L 7 24 L 6 24 Z M 6 23 " clip-rule="nonzero"/></clipPath><clipPath id="5329407440"><path d="M 9.949219 0.34375 L 26.054688 4.730469 L 19.570312 28.539062 L 3.464844 24.152344 Z M 9.949219 0.34375 " clip-rule="nonzero"/></clipPath><clipPath id="99e1c0d1e7"><path d="M 9.949219 0.34375 L 26.054688 4.730469 L 19.570312 28.539062 L 3.464844 24.152344 Z M 9.949219 0.34375 " clip-rule="nonzero"/></clipPath><clipPath id="a5b53ce3ce"><path d="M 11 23 L 12 23 L 12 24 L 11 24 Z M 11 23 " clip-rule="nonzero"/></clipPath><clipPath id="09595ec8aa"><path d="M 9.949219 0.34375 L 26.054688 4.730469 L 19.570312 28.539062 L 3.464844 24.152344 Z M 9.949219 0.34375 " clip-rule="nonzero"/></clipPath><clipPath id="afcccd68e9"><path d="M 9.949219 0.34375 L 26.054688 4.730469 L 19.570312 28.539062 L 3.464844 24.152344 Z M 9.949219 0.34375 " clip-rule="nonzero"/></clipPath><clipPath id="0d32489f00"><path d="M 7 24 L 8 24 L 8 25 L 7 25 Z M 7 24 " clip-rule="nonzero"/></clipPath><clipPath id="eeb55c54a2"><path d="M 9.949219 0.34375 L 26.054688 4.730469 L 19.570312 28.539062 L 3.464844 24.152344 Z M 9.949219 0.34375 " clip-rule="nonzero"/></clipPath><clipPath id="0eddd26c39"><path d="M 9.949219 0.34375 L 26.054688 4.730469 L 19.570312 28.539062 L 3.464844 24.152344 Z M 9.949219 0.34375 " clip-rule="nonzero"/></clipPath><clipPath id="c337d0284c"><path d="M 7 24 L 9 24 L 9 25 L 7 25 Z M 7 24 " clip-rule="nonzero"/></clipPath><clipPath id="9e05e7a5fd"><path d="M 9.949219 0.34375 L 26.054688 4.730469 L 19.570312 28.539062 L 3.464844 24.152344 Z M 9.949219 0.34375 " clip-rule="nonzero"/></clipPath><clipPath id="85865cff6e"><path d="M 9.949219 0.34375 L 26.054688 4.730469 L 19.570312 28.539062 L 3.464844 24.152344 Z M 9.949219 0.34375 " clip-rule="nonzero"/></clipPath><clipPath id="a135b25e18"><path d="M 9 22 L 10 22 L 10 23 L 9 23 Z M 9 22 " clip-rule="nonzero"/></clipPath><clipPath id="cebb59daa2"><path d="M 9.949219 0.34375 L 26.054688 4.730469 L 19.570312 28.539062 L 3.464844 24.152344 Z M 9.949219 0.34375 " clip-rule="nonzero"/></clipPath><clipPath id="89449e4c32"><path d="M 9.949219 0.34375 L 26.054688 4.730469 L 19.570312 28.539062 L 3.464844 24.152344 Z M 9.949219 0.34375 " clip-rule="nonzero"/></clipPath><clipPath id="3988e44637"><path d="M 12 23 L 14 23 L 14 24 L 12 24 Z M 12 23 " clip-rule="nonzero"/></clipPath><clipPath id="a5f227a29e"><path d="M 9.949219 0.34375 L 26.054688 4.730469 L 19.570312 28.539062 L 3.464844 24.152344 Z M 9.949219 0.34375 " clip-rule="nonzero"/></clipPath><clipPath id="64df23a824"><path d="M 9.949219 0.34375 L 26.054688 4.730469 L 19.570312 28.539062 L 3.464844 24.152344 Z M 9.949219 0.34375 " clip-rule="nonzero"/></clipPath><clipPath id="80d7b67703"><path d="M 19 21 L 20 21 L 20 22 L 19 22 Z M 19 21 " clip-rule="nonzero"/></clipPath><clipPath id="0025a2dcd6"><path d="M 9.949219 0.34375 L 26.054688 4.730469 L 19.570312 28.539062 L 3.464844 24.152344 Z M 9.949219 0.34375 " clip-rule="nonzero"/></clipPath><clipPath id="584c1a37e5"><path d="M 9.949219 0.34375 L 26.054688 4.730469 L 19.570312 28.539062 L 3.464844 24.152344 Z M 9.949219 0.34375 " clip-rule="nonzero"/></clipPath><clipPath id="e5e4d84831"><path d="M 13 9 L 15 9 L 15 10 L 13 10 Z M 13 9 " clip-rule="nonzero"/></clipPath><clipPath id="97ecfa503a"><path d="M 9.949219 0.34375 L 26.054688 4.730469 L 19.570312 28.539062 L 3.464844 24.152344 Z M 9.949219 0.34375 " clip-rule="nonzero"/></clipPath><clipPath id="5c94b0b99a"><path d="M 9.949219 0.34375 L 26.054688 4.730469 L 19.570312 28.539062 L 3.464844 24.152344 Z M 9.949219 0.34375 " clip-rule="nonzero"/></clipPath></defs><g clip-path="url(#1af1457a77)"><g clip-path="url(#4254ae891d)"><g clip-path="url(#cf82bb808d)"><path fill="#faf6f3" d="M 8.683594 22.019531 C 8.734375 21.996094 8.75 21.976562 8.75 21.96875 C 8.703125 21.996094 8.667969 22.019531 8.683594 22.019531 Z M 8.683594 22.019531 " fill-opacity="1" fill-rule="nonzero"/></g></g></g><g clip-path="url(#8e210be839)"><g clip-path="url(#7bf7835499)"><g clip-path="url(#b9d7a2aca0)"><path fill="#faf6f3" d="M 7.5 22.480469 C 7.527344 22.472656 7.546875 22.464844 7.570312 22.453125 C 7.542969 22.460938 7.515625 22.46875 7.5 22.480469 Z M 7.5 22.480469 " fill-opacity="1" fill-rule="nonzero"/></g></g></g><g clip-path="url(#d30479481f)"><g clip-path="url(#6f74a939a0)"><g clip-path="url(#852bd4999e)"><path fill="#faf6f3" d="M 7.175781 24.582031 C 7.132812 24.574219 7.097656 24.570312 7.066406 24.574219 C 7.097656 24.578125 7.132812 24.585938 7.164062 24.59375 C 7.167969 24.589844 7.171875 24.585938 7.175781 24.582031 Z M 7.175781 24.582031 " fill-opacity="1" fill-rule="nonzero"/></g></g></g><g clip-path="url(#e94d30d899)"><g clip-path="url(#636d26b7d9)"><g clip-path="url(#060c964595)"><path fill="#faf6f3" d="M 6.71875 24.730469 L 6.777344 24.746094 C 6.796875 24.738281 6.816406 24.730469 6.835938 24.71875 Z M 6.71875 24.730469 " fill-opacity="1" fill-rule="nonzero"/></g></g></g><g clip-path="url(#66e7a135e4)"><g clip-path="url(#1efebabac0)"><g clip-path="url(#08d188becc)"><path fill="#faf6f3" d="M 5.164062 24.378906 C 5.175781 24.371094 5.179688 24.359375 5.183594 24.355469 C 5.171875 24.363281 5.167969 24.371094 5.164062 24.378906 Z M 5.164062 24.378906 " fill-opacity="1" fill-rule="nonzero"/></g></g></g><g clip-path="url(#99f60d3597)"><g clip-path="url(#07eb5a9963)"><g clip-path="url(#a11fbb127d)"><path fill="#faf6f3" d="M 20.609375 6.339844 C 20.613281 6.339844 20.617188 6.339844 20.625 6.339844 C 20.617188 6.324219 20.613281 6.320312 20.609375 6.339844 Z M 20.609375 6.339844 " fill-opacity="1" fill-rule="nonzero"/></g></g></g><g clip-path="url(#3885a0d7d8)"><g clip-path="url(#6abff03eb5)"><g clip-path="url(#26613e3f39)"><path fill="#faf6f3" d="M 21.121094 3.519531 L 21.128906 3.558594 C 21.144531 3.5625 21.160156 3.5625 21.175781 3.5625 Z M 21.121094 3.519531 " fill-opacity="1" fill-rule="nonzero"/></g></g></g><g clip-path="url(#3fa4f7f51f)"><g clip-path="url(#ee1eda4315)"><g clip-path="url(#283baf68bf)"><path fill="#faf6f3" d="M 4.628906 23.765625 C 4.636719 23.761719 4.640625 23.761719 4.648438 23.757812 C 4.710938 23.710938 4.667969 23.738281 4.628906 23.765625 Z M 4.628906 23.765625 " fill-opacity="1" fill-rule="nonzero"/></g></g></g><g clip-path="url(#615029acc3)"><g clip-path="url(#c82c30d7e0)"><g clip-path="url(#d39b0d89f5)"><path fill="#faf6f3" d="M 22.816406 17.257812 C 22.675781 17.476562 22.84375 16.84375 22.664062 17.179688 C 22.703125 17.152344 22.683594 17.542969 22.816406 17.257812 Z M 22.816406 17.257812 " fill-opacity="1" fill-rule="nonzero"/></g></g></g><g clip-path="url(#436db73362)"><g clip-path="url(#a84d3aea2d)"><g clip-path="url(#adb75b2ae9)"><path fill="#faf6f3" d="M 7.234375 24.609375 C 7.269531 24.617188 7.300781 24.625 7.332031 24.636719 C 7.289062 24.621094 7.257812 24.613281 7.234375 24.609375 Z M 7.234375 24.609375 " fill-opacity="1" fill-rule="nonzero"/></g></g></g><g clip-path="url(#a729cc4c84)"><g clip-path="url(#8ae297405d)"><g clip-path="url(#223283ce67)"><path fill="#faf6f3" d="M 9.128906 24.363281 C 9.132812 24.371094 9.144531 24.382812 9.1875 24.394531 C 9.175781 24.382812 9.152344 24.371094 9.128906 24.363281 Z M 9.128906 24.363281 " fill-opacity="1" fill-rule="nonzero"/></g></g></g><g clip-path="url(#3ac6a7fe61)"><g clip-path="url(#9446a75f3d)"><g clip-path="url(#0f0e702f2c)"><path fill="#faf6f3" d="M 11.390625 24.058594 C 11.382812 24.054688 11.375 24.054688 11.367188 24.050781 C 11.347656 24.0625 11.324219 24.070312 11.289062 24.070312 C 11.316406 24.074219 11.339844 24.070312 11.390625 24.058594 Z M 11.390625 24.058594 " fill-opacity="1" fill-rule="nonzero"/></g></g></g><g clip-path="url(#3037eb85f9)"><g clip-path="url(#2ff39fd99f)"><g clip-path="url(#ca96aad04f)"><path fill="#faf6f3" d="M 13.375 23.710938 C 13.363281 23.710938 13.347656 23.707031 13.332031 23.707031 C 13.3125 23.710938 13.289062 23.71875 13.265625 23.722656 Z M 13.375 23.710938 " fill-opacity="1" fill-rule="nonzero"/></g></g></g><g clip-path="url(#d0e4b6b181)"><g clip-path="url(#2ba44db06a)"><g clip-path="url(#7ff0cf260b)"><path fill="#faf6f3" d="M 17.664062 11.792969 C 17.710938 11.777344 17.75 11.773438 17.78125 11.777344 C 17.71875 11.757812 17.925781 11.535156 17.664062 11.792969 Z M 17.664062 11.792969 " fill-opacity="1" fill-rule="nonzero"/></g></g></g><g clip-path="url(#335db80cda)"><g clip-path="url(#77d5e3137f)"><g clip-path="url(#50ee1444a6)"><path fill="#faf6f3" d="M 7.164062 24.625 C 7.183594 24.605469 7.203125 24.601562 7.234375 24.609375 C 7.210938 24.601562 7.1875 24.597656 7.164062 24.59375 C 7.15625 24.601562 7.152344 24.613281 7.164062 24.625 Z M 7.164062 24.625 " fill-opacity="1" fill-rule="nonzero"/></g></g></g><g clip-path="url(#9f8271599a)"><g clip-path="url(#25e76aa53d)"><g clip-path="url(#52995a7619)"><path fill="#faf6f3" d="M 11.246094 23.445312 L 11.582031 23.410156 C 11.488281 23.417969 11.367188 23.429688 11.246094 23.445312 Z M 11.246094 23.445312 " fill-opacity="1" fill-rule="nonzero"/></g></g></g><g clip-path="url(#dd2d751330)"><g clip-path="url(#db5f9f94ce)"><g clip-path="url(#8ff808421d)"><path fill="#faf6f3" d="M 12.921875 10.027344 C 12.953125 10.023438 12.980469 10.019531 12.996094 10.007812 Z M 12.921875 10.027344 " fill-opacity="1" fill-rule="nonzero"/></g></g></g><g clip-path="url(#bb87f6d140)"><g clip-path="url(#4281124e19)"><g clip-path="url(#8bc5bae7ae)"><path fill="#faf6f3" d="M 12.566406 23.238281 C 12.632812 23.253906 12.695312 23.257812 12.761719 23.257812 C 12.777344 23.25 12.789062 23.242188 12.796875 23.230469 Z M 12.566406 23.238281 " fill-opacity="1" fill-rule="nonzero"/></g></g></g><g clip-path="url(#f6367ea6ab)"><g clip-path="url(#64aa896841)"><g clip-path="url(#e19437c6e6)"><path fill="#faf6f3" d="M 5.894531 23.894531 L 5.996094 23.882812 C 5.988281 23.886719 5.976562 23.890625 5.964844 23.894531 C 6.007812 23.882812 6.078125 23.871094 6.128906 23.863281 C 6.074219 23.863281 6.117188 23.839844 5.894531 23.894531 Z M 5.894531 23.894531 " fill-opacity="1" fill-rule="nonzero"/></g></g></g><g clip-path="url(#880a2b6a7a)"><g clip-path="url(#500f095360)"><g clip-path="url(#fe08c9a683)"><path fill="#faf6f3" d="M 4.917969 23.65625 C 4.964844 23.632812 5.007812 23.609375 5.039062 23.589844 C 4.984375 23.617188 4.945312 23.640625 4.917969 23.65625 Z M 4.917969 23.65625 " fill-opacity="1" fill-rule="nonzero"/></g></g></g><g clip-path="url(#750ba59892)"><g clip-path="url(#7cccbbeb58)"><g clip-path="url(#f782ce6339)"><path fill="#faf6f3" d="M 23.140625 16.085938 L 23.011719 16.386719 C 23.011719 16.246094 23.027344 16.152344 23.046875 16.074219 C 23.066406 15.996094 23.085938 15.941406 23.113281 15.882812 C 23.160156 15.769531 23.21875 15.648438 23.183594 15.371094 L 23.226562 15.550781 C 23.222656 15.476562 23.222656 15.375 23.226562 15.257812 C 23.226562 15.199219 23.230469 15.140625 23.226562 15.070312 C 23.222656 15.003906 23.21875 14.933594 23.214844 14.863281 C 23.191406 14.582031 23.117188 14.308594 23.011719 14.183594 C 23.015625 14.128906 23.042969 14.046875 23.089844 14.175781 C 23.015625 13.816406 22.824219 13.457031 22.609375 13.152344 C 22.394531 12.847656 22.164062 12.589844 22.015625 12.367188 L 22.082031 12.378906 C 21.988281 12.285156 21.871094 12.269531 21.789062 12.125 C 21.804688 12.117188 21.855469 12.132812 21.8125 12.085938 C 21.753906 12.050781 21.515625 11.90625 21.398438 11.785156 L 21.539062 11.839844 C 21.304688 11.597656 21.078125 11.472656 20.859375 11.367188 C 20.746094 11.316406 20.636719 11.269531 20.527344 11.222656 C 20.414062 11.175781 20.300781 11.125 20.175781 11.0625 C 20.207031 11.011719 20.117188 10.910156 19.988281 10.8125 C 19.855469 10.710938 19.691406 10.609375 19.578125 10.546875 L 19.59375 10.535156 C 19.550781 10.515625 19.507812 10.492188 19.464844 10.476562 C 19.617188 10.25 19.761719 10.011719 19.890625 9.769531 C 20.171875 9.25 20.410156 8.714844 20.679688 8.207031 C 20.816406 7.910156 20.769531 7.855469 20.777344 7.652344 L 20.878906 7.613281 C 20.882812 7.496094 20.882812 7.378906 20.878906 7.261719 C 20.910156 7.023438 21.003906 6.835938 21.097656 6.628906 C 21.140625 6.523438 21.183594 6.414062 21.214844 6.292969 C 21.242188 6.167969 21.253906 6.03125 21.246094 5.878906 L 21.175781 5.945312 C 21.226562 5.734375 21.230469 5.261719 21.289062 5.304688 C 21.28125 5.28125 21.238281 5.226562 21.273438 5.144531 L 21.316406 5.140625 C 21.304688 4.960938 21.285156 4.78125 21.261719 4.605469 C 21.277344 4.398438 21.320312 4.414062 21.359375 4.40625 C 21.402344 4.398438 21.441406 4.367188 21.429688 4.058594 C 21.402344 3.828125 21.238281 3.425781 21.21875 3.515625 C 21.230469 3.605469 21.21875 3.746094 21.175781 3.757812 C 21.160156 3.691406 21.148438 3.625 21.128906 3.558594 C 21.0625 3.546875 20.992188 3.511719 20.933594 3.535156 C 20.875 3.5625 20.835938 3.652344 20.8125 3.894531 C 20.847656 4 20.878906 4.109375 20.910156 4.21875 L 20.851562 4.328125 C 20.847656 4.238281 20.84375 4.144531 20.835938 4.050781 C 20.785156 4.210938 20.839844 4.308594 20.878906 4.421875 C 20.847656 4.449219 20.824219 4.496094 20.8125 4.5625 C 20.851562 4.667969 20.890625 4.78125 20.929688 4.890625 C 20.875 4.929688 20.832031 4.742188 20.796875 4.957031 C 20.84375 5.117188 20.917969 4.816406 20.941406 5.074219 C 20.871094 5.230469 20.828125 5.179688 20.859375 5.371094 C 20.824219 5.394531 20.808594 5.351562 20.796875 5.277344 C 20.824219 5.449219 20.765625 5.71875 20.820312 5.8125 C 20.769531 5.890625 20.753906 6.035156 20.730469 6.152344 C 20.710938 6.269531 20.679688 6.359375 20.625 6.339844 C 20.644531 6.398438 20.660156 6.652344 20.625 6.804688 C 20.585938 6.648438 20.550781 6.789062 20.507812 6.953125 C 20.460938 7.117188 20.40625 7.304688 20.339844 7.246094 C 20.371094 7.363281 20.332031 7.550781 20.273438 7.75 C 20.214844 7.949219 20.128906 8.160156 20.097656 8.347656 C 20.09375 8.324219 20.089844 8.277344 20.109375 8.25 C 20.019531 8.4375 19.957031 8.476562 19.882812 8.589844 C 19.929688 8.625 19.921875 8.714844 19.902344 8.824219 C 19.882812 8.933594 19.847656 9.058594 19.839844 9.148438 C 19.628906 9.328125 19.792969 8.953125 19.667969 8.980469 C 19.753906 9.007812 19.542969 9.410156 19.644531 9.371094 C 19.492188 9.507812 19.535156 9.5 19.410156 9.542969 C 19.507812 9.640625 19.335938 9.710938 19.324219 9.890625 C 19.113281 10.089844 19.179688 9.882812 19.039062 10.160156 C 18.980469 10.210938 18.980469 10.171875 18.996094 10.121094 C 19.011719 10.070312 19.035156 10.007812 19.035156 10.007812 C 18.859375 10.261719 19.035156 10.183594 19.046875 10.273438 C 19.042969 10.285156 19.035156 10.292969 19.03125 10.300781 C 18.894531 10.257812 18.761719 10.21875 18.628906 10.183594 C 18.320312 10.105469 18.015625 10.046875 17.671875 9.972656 C 17.484375 9.84375 17.128906 9.734375 16.738281 9.644531 C 16.34375 9.550781 15.917969 9.476562 15.574219 9.394531 C 15.675781 9.429688 15.542969 9.484375 15.417969 9.484375 C 15.257812 9.4375 14.957031 9.519531 14.996094 9.410156 L 15.054688 9.417969 C 14.941406 9.292969 14.597656 9.292969 14.332031 9.285156 L 14.285156 9.429688 C 13.945312 9.308594 13.484375 9.328125 13.070312 9.382812 C 12.65625 9.433594 12.289062 9.515625 12.085938 9.457031 C 11.921875 9.523438 11.71875 9.570312 11.5625 9.648438 L 11.550781 9.570312 C 11.433594 9.59375 11.332031 9.625 11.238281 9.648438 C 11.140625 9.675781 11.050781 9.707031 10.960938 9.738281 C 10.777344 9.8125 10.578125 9.890625 10.316406 10.054688 L 10.398438 9.945312 C 10.242188 10.023438 10.179688 10.140625 10.125 10.242188 C 10.097656 10.296875 10.074219 10.355469 10.039062 10.40625 C 10.023438 10.433594 10.007812 10.457031 9.984375 10.484375 C 9.964844 10.511719 9.941406 10.539062 9.910156 10.5625 C 9.863281 10.554688 9.8125 10.546875 9.761719 10.539062 C 9.539062 10.753906 9.324219 10.996094 9.179688 11.289062 C 9.035156 11.578125 8.964844 11.90625 9.011719 12.214844 C 8.996094 12.203125 8.960938 12.183594 8.964844 12.082031 C 8.949219 12.230469 8.929688 12.519531 8.96875 12.75 C 8.972656 12.804688 8.988281 12.863281 9 12.914062 C 9.015625 12.964844 9.027344 13.007812 9.046875 13.039062 C 9.078125 13.09375 9.109375 13.121094 9.136719 13.101562 C 9.109375 13.144531 9.15625 13.292969 9.257812 13.449219 C 9.367188 13.632812 9.550781 13.808594 9.6875 13.90625 L 9.59375 13.921875 C 9.660156 13.960938 9.71875 13.980469 9.761719 14 C 9.808594 14.019531 9.847656 14.03125 9.886719 14.050781 C 9.96875 14.085938 10.054688 14.132812 10.222656 14.214844 C 10.292969 14.265625 10.257812 14.308594 10.164062 14.230469 C 10.285156 14.324219 10.347656 14.332031 10.414062 14.34375 C 10.445312 14.351562 10.480469 14.355469 10.527344 14.371094 C 10.574219 14.382812 10.632812 14.410156 10.710938 14.449219 C 10.664062 14.449219 10.617188 14.449219 10.570312 14.449219 C 10.851562 14.558594 10.84375 14.519531 11.011719 14.507812 C 11.109375 14.515625 11.242188 14.550781 11.359375 14.585938 C 11.476562 14.625 11.578125 14.664062 11.59375 14.703125 C 11.617188 14.683594 11.671875 14.664062 11.738281 14.652344 C 11.804688 14.640625 11.890625 14.636719 11.976562 14.648438 C 11.996094 14.675781 11.933594 14.6875 11.902344 14.695312 C 12.148438 14.734375 12.332031 14.703125 12.492188 14.675781 C 12.65625 14.648438 12.792969 14.617188 12.964844 14.636719 C 12.976562 14.660156 13 14.671875 13.027344 14.675781 C 12.671875 14.722656 12.378906 14.726562 12.355469 14.71875 C 12.359375 14.789062 12.675781 14.789062 12.425781 14.898438 C 12.6875 14.835938 13.105469 14.671875 13.410156 14.644531 C 13.425781 14.648438 13.441406 14.65625 13.453125 14.664062 L 13.425781 14.675781 C 13.496094 14.671875 13.558594 14.652344 13.613281 14.628906 C 13.710938 14.617188 13.777344 14.613281 13.867188 14.589844 C 13.917969 14.640625 14.226562 14.53125 14.378906 14.484375 C 14.34375 14.414062 14.535156 14.363281 14.34375 14.359375 C 14.351562 14.363281 14.300781 14.382812 14.214844 14.410156 C 14.195312 14.417969 14.167969 14.425781 14.152344 14.4375 C 14.15625 14.433594 14.160156 14.429688 14.164062 14.425781 C 14.066406 14.457031 13.9375 14.492188 13.789062 14.53125 C 13.898438 14.460938 14.015625 14.398438 14.191406 14.394531 C 14.253906 14.324219 14.320312 14.246094 14.359375 14.207031 C 14.476562 14.230469 14.636719 14.21875 14.777344 14.207031 C 14.917969 14.191406 15.039062 14.179688 15.078125 14.199219 C 15.292969 14.085938 15.546875 13.96875 15.769531 13.832031 C 15.878906 13.765625 15.980469 13.691406 16.070312 13.625 C 16.15625 13.554688 16.222656 13.480469 16.269531 13.414062 C 16.375 13.328125 16.421875 13.371094 16.476562 13.363281 C 16.417969 13.417969 16.339844 13.464844 16.3125 13.503906 C 16.421875 13.417969 16.589844 13.3125 16.726562 13.203125 C 16.867188 13.101562 16.972656 12.996094 16.972656 12.9375 C 17.269531 12.777344 16.875 13.128906 17.238281 12.839844 L 17.207031 12.902344 C 17.625 12.691406 17.871094 12.394531 18.109375 12.085938 C 18.339844 11.789062 18.5625 11.484375 18.9375 11.171875 C 18.910156 11.195312 18.890625 11.207031 18.875 11.207031 C 18.90625 11.175781 18.9375 11.144531 18.964844 11.109375 C 19.003906 11.125 19.042969 11.140625 19.082031 11.160156 C 19.121094 11.089844 19.285156 11.183594 19.441406 11.191406 C 19.746094 11.371094 20.058594 11.609375 20.410156 11.835938 C 20.675781 11.96875 20.515625 11.828125 20.652344 11.867188 C 20.632812 11.933594 20.96875 12.183594 20.765625 12.09375 C 20.867188 12.164062 20.949219 12.226562 21.019531 12.285156 C 21.09375 12.339844 21.160156 12.394531 21.226562 12.449219 C 21.292969 12.503906 21.367188 12.5625 21.445312 12.636719 C 21.53125 12.703125 21.621094 12.792969 21.734375 12.898438 C 21.714844 12.832031 21.671875 12.765625 21.714844 12.777344 C 21.804688 12.855469 21.859375 13 21.824219 13.007812 L 21.796875 12.988281 C 22.058594 13.230469 22.234375 13.609375 22.320312 13.972656 C 22.40625 14.328125 22.417969 14.65625 22.492188 14.910156 C 22.527344 15.089844 22.535156 15.292969 22.554688 15.492188 C 22.539062 15.628906 22.523438 15.585938 22.511719 15.535156 C 22.5 15.484375 22.480469 15.425781 22.453125 15.523438 C 22.46875 15.683594 22.464844 15.824219 22.457031 15.957031 C 22.441406 16.089844 22.414062 16.207031 22.390625 16.324219 C 22.367188 16.441406 22.332031 16.550781 22.308594 16.664062 C 22.285156 16.78125 22.253906 16.894531 22.234375 17.027344 C 22.195312 17.066406 22.160156 17.121094 22.128906 17.179688 C 22.089844 17.238281 22.058594 17.304688 22.023438 17.378906 C 21.964844 17.527344 21.890625 17.691406 21.824219 17.863281 C 21.675781 18.203125 21.5 18.554688 21.289062 18.738281 L 21.347656 18.738281 C 21.3125 18.882812 21.230469 18.863281 21.160156 18.9375 C 21.199219 18.949219 21.285156 18.84375 21.257812 18.929688 C 20.933594 19.429688 20.492188 19.875 19.996094 20.253906 C 19.5 20.632812 18.957031 20.945312 18.410156 21.230469 C 18.214844 21.335938 18.183594 21.417969 18.136719 21.503906 C 18.117188 21.542969 18.085938 21.585938 18.03125 21.625 C 17.972656 21.664062 17.882812 21.703125 17.738281 21.738281 L 17.84375 21.582031 C 17.460938 21.839844 17.027344 22.027344 16.585938 22.191406 C 16.144531 22.359375 15.699219 22.503906 15.28125 22.679688 C 15.324219 22.644531 15.320312 22.617188 15.402344 22.589844 C 15.203125 22.585938 14.722656 22.785156 14.730469 22.839844 C 14.59375 22.871094 14.6875 22.800781 14.597656 22.796875 C 14.402344 22.808594 14.148438 22.996094 14.03125 22.957031 C 14.019531 22.953125 14.042969 22.941406 14.070312 22.925781 C 13.917969 22.984375 13.554688 23.039062 13.675781 23.082031 C 13.503906 23.101562 13.347656 23.144531 13.195312 23.183594 C 13.042969 23.21875 12.902344 23.253906 12.761719 23.257812 C 12.605469 23.375 12.179688 23.320312 12.144531 23.449219 C 12.144531 23.320312 11.535156 23.441406 11.324219 23.527344 C 11.390625 23.480469 11.132812 23.515625 11.210938 23.453125 C 10.964844 23.484375 10.742188 23.535156 10.792969 23.59375 C 10.324219 23.5 9.890625 23.816406 9.617188 23.644531 C 8.890625 23.777344 8.210938 23.863281 7.546875 23.914062 C 7.566406 23.789062 8.28125 23.871094 8.246094 23.738281 C 7.933594 23.78125 7.6875 23.832031 7.4375 23.867188 C 7.316406 23.886719 7.191406 23.902344 7.0625 23.914062 C 6.996094 23.917969 6.925781 23.921875 6.855469 23.921875 C 6.820312 23.921875 6.785156 23.921875 6.746094 23.921875 C 6.730469 23.921875 6.710938 23.921875 6.691406 23.921875 L 6.660156 23.921875 C 6.652344 23.921875 6.640625 23.921875 6.640625 23.921875 C 6.601562 23.910156 6.617188 23.898438 6.636719 23.882812 C 6.640625 23.882812 6.640625 23.878906 6.644531 23.878906 C 6.652344 23.875 6.660156 23.875 6.664062 23.871094 C 6.679688 23.867188 6.695312 23.863281 6.710938 23.863281 C 6.738281 23.855469 6.765625 23.847656 6.777344 23.84375 C 6.738281 23.84375 6.699219 23.847656 6.660156 23.851562 C 6.636719 23.855469 6.640625 23.855469 6.628906 23.855469 L 6.609375 23.859375 C 6.582031 23.863281 6.554688 23.863281 6.53125 23.867188 C 6.476562 23.867188 6.425781 23.867188 6.378906 23.867188 C 6.277344 23.863281 6.199219 23.863281 5.964844 23.894531 C 5.847656 23.929688 5.667969 23.964844 5.441406 23.996094 C 5.410156 24 5.378906 24.003906 5.347656 24.007812 C 5.320312 24.011719 5.273438 24.015625 5.277344 24.011719 C 5.261719 24.011719 5.25 24.007812 5.238281 24.003906 C 5.214844 23.996094 5.195312 23.992188 5.160156 23.996094 C 5.277344 23.984375 5.378906 23.960938 5.457031 23.941406 C 5.539062 23.917969 5.601562 23.894531 5.664062 23.875 C 5.726562 23.851562 5.785156 23.832031 5.863281 23.816406 C 5.941406 23.804688 6.023438 23.796875 6.171875 23.785156 C 6.152344 23.78125 6.105469 23.773438 5.984375 23.789062 C 6.070312 23.761719 6.132812 23.753906 6.222656 23.757812 C 6.234375 23.734375 6.203125 23.726562 6.183594 23.714844 C 6.164062 23.703125 6.160156 23.6875 6.246094 23.648438 C 6.292969 23.65625 6.277344 23.671875 6.328125 23.683594 C 6.308594 23.667969 6.300781 23.640625 6.328125 23.605469 C 6.355469 23.574219 6.414062 23.535156 6.496094 23.507812 C 6.5 23.527344 6.519531 23.535156 6.5 23.550781 C 6.507812 23.546875 6.519531 23.539062 6.527344 23.535156 C 6.535156 23.53125 6.535156 23.527344 6.550781 23.519531 L 6.589844 23.496094 C 6.644531 23.46875 6.695312 23.4375 6.746094 23.40625 C 6.820312 23.355469 6.898438 23.304688 6.972656 23.253906 L 6.972656 23.257812 C 7.015625 23.234375 7.035156 23.222656 7.035156 23.214844 C 7.144531 23.144531 7.253906 23.078125 7.375 23.011719 C 7.496094 22.972656 7.582031 22.945312 7.699219 22.871094 C 7.613281 23.039062 7.898438 22.816406 7.96875 22.898438 L 8.234375 22.734375 L 8.097656 22.742188 C 8.210938 22.691406 8.304688 22.625 8.398438 22.566406 L 8.378906 22.648438 C 8.992188 22.488281 9.324219 22 9.835938 21.972656 C 9.957031 21.84375 9.507812 22.070312 9.609375 21.941406 C 9.6875 21.910156 9.773438 21.886719 9.855469 21.867188 C 9.855469 21.875 9.859375 21.882812 9.867188 21.882812 C 9.871094 21.875 9.878906 21.871094 9.886719 21.863281 C 9.957031 21.847656 10.023438 21.835938 10.082031 21.832031 L 10.042969 21.746094 C 10.042969 21.746094 10.042969 21.746094 10.046875 21.746094 L 9.902344 21.445312 C 9.902344 21.445312 9.902344 21.445312 9.898438 21.449219 L 9.859375 21.363281 C 9.761719 21.382812 9.6875 21.394531 9.65625 21.410156 C 9.34375 21.511719 9.363281 21.636719 9.160156 21.761719 C 9.121094 21.777344 9.097656 21.792969 9.082031 21.804688 C 9.054688 21.816406 9.027344 21.828125 8.996094 21.839844 C 9.03125 21.84375 9.070312 21.863281 9.058594 21.90625 C 9.027344 21.917969 8.988281 21.933594 8.925781 21.953125 C 8.953125 21.933594 8.933594 21.929688 8.996094 21.890625 C 8.851562 21.945312 8.714844 22.011719 8.582031 22.078125 C 8.582031 22.054688 8.605469 22.027344 8.652344 21.992188 C 8.710938 21.960938 8.746094 21.957031 8.75 21.96875 C 8.828125 21.914062 8.929688 21.851562 8.8125 21.867188 L 8.792969 21.914062 C 8.648438 21.945312 8.296875 22.121094 8.355469 22.03125 C 8.171875 22.15625 8.296875 22.121094 8.449219 22.066406 C 8.351562 22.097656 8.273438 22.132812 8.195312 22.164062 L 8.175781 22.167969 L 8.171875 22.175781 C 8.121094 22.199219 8.070312 22.222656 8.019531 22.25 C 8.011719 22.246094 8.003906 22.242188 7.988281 22.242188 C 7.875 22.296875 7.761719 22.359375 7.648438 22.421875 C 7.625 22.433594 7.597656 22.445312 7.570312 22.453125 C 7.578125 22.453125 7.589844 22.453125 7.597656 22.453125 C 7.398438 22.5625 7.199219 22.679688 7 22.789062 C 6.984375 22.78125 6.949219 22.796875 6.8125 22.886719 C 6.585938 22.957031 6.726562 22.828125 6.800781 22.761719 C 6.65625 22.867188 6.507812 22.929688 6.371094 22.972656 C 6.351562 22.976562 6.335938 22.984375 6.316406 22.988281 C 6.300781 22.996094 6.289062 22.996094 6.257812 23.011719 C 6.199219 23.03125 6.144531 23.050781 6.089844 23.070312 C 5.984375 23.113281 5.882812 23.152344 5.796875 23.1875 L 6.085938 23.019531 C 5.90625 23.125 5.757812 23.195312 5.601562 23.269531 C 5.6875 23.253906 5.769531 23.238281 5.847656 23.226562 C 5.667969 23.300781 5.519531 23.371094 5.484375 23.355469 C 5.425781 23.410156 5.503906 23.402344 5.554688 23.410156 C 5.476562 23.449219 5.398438 23.492188 5.316406 23.539062 C 5.265625 23.566406 5.214844 23.597656 5.160156 23.625 C 5.121094 23.648438 5.078125 23.671875 5.039062 23.695312 C 5.03125 23.691406 5.003906 23.695312 4.96875 23.699219 C 4.894531 23.710938 4.792969 23.730469 4.917969 23.65625 C 4.898438 23.667969 4.882812 23.675781 4.859375 23.6875 C 4.789062 23.71875 4.707031 23.757812 4.621094 23.796875 C 4.574219 23.808594 4.597656 23.785156 4.628906 23.765625 C 4.035156 24.011719 4.289062 23.96875 4.257812 24.042969 C 4.164062 24.082031 4.066406 24.125 3.96875 24.167969 C 3.890625 24.203125 3.8125 24.238281 3.734375 24.273438 C 3.652344 24.304688 3.578125 24.335938 3.539062 24.359375 C 3.488281 24.378906 3.4375 24.402344 3.390625 24.421875 C 3.40625 24.425781 3.414062 24.429688 3.425781 24.429688 C 3.648438 24.441406 3.808594 24.480469 3.851562 24.433594 C 3.9375 24.507812 4.171875 24.578125 4.421875 24.632812 C 4.675781 24.691406 4.945312 24.734375 5.183594 24.765625 L 5.273438 24.78125 L 5.34375 24.789062 L 5.476562 24.804688 C 5.5625 24.816406 5.652344 24.832031 5.738281 24.847656 C 5.90625 24.882812 6.074219 24.933594 6.230469 25.011719 C 6.152344 24.996094 6.035156 25.003906 6.097656 25.015625 L 6.675781 25.105469 C 6.644531 25.035156 6.609375 25.050781 6.5 24.976562 C 6.582031 24.953125 6.75 24.960938 6.890625 24.992188 C 6.625 24.976562 6.871094 25.09375 6.976562 25.152344 C 6.960938 25.128906 7.003906 25.117188 6.996094 25.09375 C 7.273438 25.269531 7.074219 24.976562 7.46875 25.140625 L 7.4375 25.167969 C 7.59375 25.1875 7.746094 25.171875 7.90625 25.21875 C 7.960938 25.304688 7.738281 25.214844 7.714844 25.273438 C 7.945312 25.320312 8.199219 25.234375 8.394531 25.351562 C 8.292969 25.351562 8.148438 25.320312 8.046875 25.320312 C 8.257812 25.453125 8.289062 25.4375 8.453125 25.488281 L 8.4375 25.484375 L 8.820312 25.605469 L 8.726562 25.5625 C 8.996094 25.457031 9.226562 25.585938 9.53125 25.613281 C 9.539062 25.621094 9.550781 25.628906 9.558594 25.636719 C 9.507812 25.652344 9.550781 25.667969 9.585938 25.6875 C 9.574219 25.695312 9.546875 25.691406 9.484375 25.679688 C 9.542969 25.707031 9.585938 25.726562 9.617188 25.742188 C 9.617188 25.742188 9.617188 25.742188 9.617188 25.746094 C 9.710938 25.789062 9.855469 25.847656 9.808594 25.859375 C 9.972656 25.839844 10.070312 25.933594 10.257812 25.945312 L 10.375 25.484375 C 10.335938 25.480469 10.292969 25.480469 10.246094 25.484375 C 10.242188 25.457031 10.050781 25.425781 10.113281 25.371094 C 9.871094 25.328125 10.15625 25.433594 10.125 25.460938 C 9.738281 25.449219 9.300781 25.109375 8.742188 25.085938 C 8.277344 25.007812 8.171875 25.074219 7.738281 25 C 7.609375 24.917969 7.882812 24.9375 7.882812 24.9375 C 7.664062 24.832031 7.492188 24.792969 7.269531 24.761719 C 7.320312 24.75 7.277344 24.71875 7.222656 24.671875 C 7.046875 24.628906 7.078125 24.734375 6.863281 24.632812 C 6.910156 24.613281 6.972656 24.582031 7.066406 24.574219 C 6.855469 24.542969 6.640625 24.535156 6.425781 24.496094 C 6.421875 24.496094 6.421875 24.496094 6.421875 24.492188 C 6.488281 24.496094 6.546875 24.503906 6.609375 24.507812 C 6.660156 24.515625 6.671875 24.519531 6.703125 24.523438 C 6.726562 24.527344 6.753906 24.527344 6.785156 24.53125 C 6.84375 24.53125 6.914062 24.53125 7.007812 24.515625 C 6.898438 24.449219 6.882812 24.46875 7.136719 24.398438 L 6.839844 24.425781 L 6.6875 24.441406 L 6.648438 24.445312 L 6.605469 24.445312 C 6.59375 24.445312 6.578125 24.441406 6.566406 24.4375 L 6.625 24.429688 C 6.652344 24.425781 6.664062 24.421875 6.683594 24.414062 L 6.730469 24.402344 L 6.921875 24.351562 C 6.832031 24.351562 6.734375 24.363281 6.648438 24.375 C 6.527344 24.382812 6.40625 24.394531 6.332031 24.386719 C 6.617188 24.332031 6.566406 24.347656 6.472656 24.292969 C 6.507812 24.304688 6.546875 24.316406 6.585938 24.320312 C 6.605469 24.324219 6.628906 24.324219 6.648438 24.324219 C 6.664062 24.328125 6.679688 24.328125 6.695312 24.328125 C 6.757812 24.324219 6.820312 24.316406 6.882812 24.304688 C 7.011719 24.285156 7.140625 24.261719 7.285156 24.289062 L 7.28125 24.457031 C 7.714844 24.515625 8.046875 24.347656 8.605469 24.355469 L 8.425781 24.335938 C 8.496094 24.265625 8.769531 24.304688 8.949219 24.269531 C 8.9375 24.324219 9.050781 24.335938 9.128906 24.363281 C 9.117188 24.324219 9.539062 24.335938 9.582031 24.222656 L 9.839844 24.273438 C 10.292969 24.257812 10.335938 24.066406 10.769531 24.035156 C 10.644531 24.109375 10.847656 24.125 10.5625 24.203125 C 10.707031 24.183594 10.839844 24.179688 10.835938 24.140625 C 10.925781 24.164062 11.226562 24.019531 11.367188 24.050781 C 11.421875 24.019531 11.433594 23.960938 11.597656 23.941406 C 11.609375 23.945312 11.605469 23.957031 11.601562 23.960938 C 11.632812 23.933594 11.835938 23.890625 11.695312 23.855469 C 12.164062 23.964844 12.925781 23.640625 13.332031 23.707031 C 13.640625 23.625 14.011719 23.523438 14.289062 23.449219 C 14.273438 23.46875 14.292969 23.476562 14.238281 23.484375 C 14.636719 23.4375 14.4375 23.273438 14.886719 23.210938 C 15.136719 23.238281 14.667969 23.320312 14.816406 23.316406 C 14.925781 23.476562 15.335938 23.148438 15.660156 23.15625 L 15.589844 23.1875 C 15.832031 23.175781 16.113281 22.953125 16.476562 22.832031 C 16.476562 22.832031 16.464844 22.855469 16.484375 22.859375 C 16.699219 22.6875 17.144531 22.472656 17.46875 22.304688 C 17.390625 22.414062 17.328125 22.402344 17.421875 22.445312 C 17.570312 22.367188 17.332031 22.359375 17.621094 22.203125 C 17.679688 22.199219 17.765625 22.183594 17.84375 22.171875 C 17.921875 22.15625 17.992188 22.152344 18.023438 22.179688 C 17.933594 22.226562 17.839844 22.273438 17.746094 22.316406 C 17.933594 22.34375 18.105469 22.136719 18.261719 22.082031 L 18.261719 22.132812 C 18.679688 21.894531 18.632812 21.796875 19.074219 21.542969 L 19.015625 21.542969 C 19.191406 21.300781 19.246094 21.472656 19.433594 21.25 L 19.566406 21.292969 C 19.707031 21.167969 20.027344 20.824219 20.269531 20.601562 C 20.222656 20.691406 20.128906 20.804688 20.027344 20.921875 C 19.925781 21.03125 19.808594 21.144531 19.726562 21.234375 C 19.800781 21.179688 19.925781 21.085938 20.039062 20.992188 C 20.148438 20.894531 20.242188 20.796875 20.261719 20.746094 C 20.210938 20.800781 20.15625 20.878906 20.085938 20.914062 C 20.148438 20.808594 20.230469 20.703125 20.328125 20.589844 C 20.378906 20.535156 20.429688 20.476562 20.488281 20.417969 C 20.515625 20.386719 20.546875 20.359375 20.578125 20.328125 C 20.609375 20.300781 20.640625 20.269531 20.671875 20.234375 C 20.699219 20.285156 20.757812 20.273438 20.835938 20.21875 C 20.871094 20.195312 20.917969 20.160156 20.964844 20.121094 C 21.007812 20.078125 21.054688 20.027344 21.105469 19.976562 C 21.152344 19.925781 21.207031 19.875 21.253906 19.824219 C 21.304688 19.769531 21.351562 19.71875 21.398438 19.667969 C 21.445312 19.621094 21.492188 19.578125 21.535156 19.542969 C 21.578125 19.507812 21.617188 19.480469 21.65625 19.46875 C 21.695312 19.394531 21.742188 19.324219 21.785156 19.253906 C 21.832031 19.1875 21.871094 19.113281 21.917969 19.046875 C 22.011719 18.910156 22.101562 18.765625 22.195312 18.621094 C 22.242188 18.550781 22.285156 18.476562 22.328125 18.398438 C 22.371094 18.324219 22.417969 18.246094 22.460938 18.167969 C 22.5 18.085938 22.539062 18 22.578125 17.917969 C 22.597656 17.875 22.617188 17.832031 22.636719 17.789062 C 22.652344 17.742188 22.667969 17.695312 22.683594 17.652344 C 22.4375 17.851562 22.757812 17.4375 22.578125 17.425781 C 22.605469 17.339844 22.621094 17.28125 22.632812 17.242188 C 22.644531 17.207031 22.65625 17.1875 22.660156 17.179688 L 22.644531 17.214844 C 22.652344 17.199219 22.65625 17.191406 22.664062 17.179688 L 22.785156 16.9375 C 22.824219 16.855469 22.859375 16.769531 22.898438 16.6875 C 22.976562 16.570312 22.898438 16.859375 22.9375 16.855469 C 23.035156 16.46875 23.050781 16.707031 23.144531 16.457031 C 23.074219 16.5 23.082031 16.304688 23.140625 16.085938 Z M 14.082031 14.523438 C 14.085938 14.519531 14.089844 14.515625 14.09375 14.511719 C 14.085938 14.527344 14.082031 14.546875 14.0625 14.5625 C 13.964844 14.597656 13.925781 14.589844 13.910156 14.578125 C 13.957031 14.566406 14.011719 14.550781 14.082031 14.523438 Z M 12.839844 14.304688 C 12.875 14.28125 12.726562 14.285156 12.632812 14.265625 C 12.707031 14.265625 12.800781 14.253906 12.898438 14.242188 C 12.925781 14.265625 12.902344 14.296875 12.839844 14.304688 Z M 13.246094 14.1875 C 13.246094 14.183594 13.246094 14.183594 13.246094 14.183594 C 13.308594 14.171875 13.359375 14.160156 13.394531 14.152344 C 13.363281 14.160156 13.320312 14.167969 13.246094 14.1875 Z M 18.496094 10.972656 C 18.472656 10.972656 18.445312 10.992188 18.457031 10.949219 C 18.359375 11.195312 17.96875 11.5 17.828125 11.769531 C 17.804688 11.777344 17.792969 11.777344 17.78125 11.777344 C 17.851562 11.78125 17.894531 11.816406 17.914062 11.847656 C 17.8125 11.949219 17.757812 12.078125 17.675781 12.066406 C 17.742188 12.007812 17.730469 11.980469 17.746094 11.9375 L 17.652344 12.0625 C 17.488281 12.078125 17.785156 11.898438 17.734375 11.847656 C 17.542969 12.066406 17.332031 12.347656 17.136719 12.464844 C 17.089844 12.441406 17.1875 12.351562 17.261719 12.285156 C 17.332031 12.21875 17.378906 12.171875 17.238281 12.234375 L 17.527344 12.039062 C 17.378906 12.070312 17.417969 12.035156 17.460938 12.003906 C 17.503906 11.96875 17.546875 11.929688 17.402344 11.949219 C 17.3125 12.015625 17.246094 12.070312 17.191406 12.121094 C 17.136719 12.167969 17.089844 12.210938 17.046875 12.257812 C 16.957031 12.34375 16.863281 12.429688 16.671875 12.546875 C 16.621094 12.648438 16.746094 12.589844 16.691406 12.691406 C 16.453125 12.914062 16.3125 12.929688 16.195312 12.9375 C 16.074219 12.945312 15.980469 12.941406 15.808594 13.113281 C 15.769531 13.167969 15.753906 13.226562 15.707031 13.289062 C 15.660156 13.347656 15.582031 13.402344 15.417969 13.449219 L 15.472656 13.300781 C 15.277344 13.394531 15.234375 13.453125 15.1875 13.507812 C 15.140625 13.5625 15.089844 13.613281 14.863281 13.667969 C 14.921875 13.597656 15.164062 13.5 15.101562 13.515625 C 14.796875 13.550781 14.933594 13.65625 14.71875 13.738281 L 14.640625 13.667969 C 14.21875 13.84375 13.746094 14.054688 13.242188 14.160156 C 13.265625 14.128906 13.34375 14.082031 13.222656 14.074219 C 12.914062 14.152344 12.570312 14.191406 12.234375 14.175781 C 11.902344 14.164062 11.574219 14.109375 11.296875 14.023438 C 11.21875 14.03125 11.140625 14.046875 11.0625 14.050781 C 11.011719 14.035156 10.976562 13.988281 11.035156 13.988281 C 10.832031 13.890625 11.007812 14.035156 10.894531 14.03125 C 10.769531 13.996094 10.753906 13.929688 10.835938 13.9375 C 10.640625 13.902344 10.367188 13.8125 10.140625 13.644531 C 10.03125 13.5625 9.933594 13.460938 9.859375 13.355469 C 9.792969 13.246094 9.742188 13.136719 9.730469 13.035156 C 9.746094 13.058594 9.761719 13.078125 9.78125 13.097656 C 9.738281 12.953125 9.671875 12.886719 9.617188 12.808594 C 9.59375 12.769531 9.5625 12.734375 9.550781 12.679688 C 9.535156 12.628906 9.53125 12.566406 9.539062 12.488281 L 9.5625 12.546875 C 9.558594 12.5 9.558594 12.457031 9.558594 12.410156 C 9.558594 12.367188 9.554688 12.320312 9.554688 12.273438 C 9.566406 12.183594 9.5625 12.09375 9.582031 12.003906 C 9.601562 11.828125 9.65625 11.65625 9.730469 11.5 C 9.796875 11.34375 9.90625 11.210938 10.011719 11.09375 C 10.128906 10.984375 10.25 10.894531 10.375 10.839844 C 10.378906 10.761719 10.53125 10.664062 10.6875 10.589844 C 10.726562 10.570312 10.761719 10.550781 10.796875 10.53125 C 10.835938 10.511719 10.867188 10.496094 10.894531 10.476562 C 10.953125 10.4375 10.988281 10.398438 10.980469 10.359375 C 11.195312 10.3125 11.277344 10.316406 11.378906 10.304688 C 11.425781 10.300781 11.480469 10.296875 11.5625 10.285156 C 11.640625 10.269531 11.746094 10.253906 11.894531 10.234375 C 11.972656 10.21875 12.023438 10.183594 12.082031 10.140625 C 12.140625 10.097656 12.203125 10.054688 12.300781 10.027344 L 12.320312 10.113281 C 12.40625 10.066406 12.492188 10.023438 12.578125 9.984375 C 12.632812 10.011719 12.683594 10.039062 12.738281 10.066406 L 12.921875 10.027344 C 12.847656 10.027344 12.757812 10.003906 12.769531 9.976562 C 13.0625 9.902344 13.5 9.988281 13.503906 10.03125 C 13.738281 10 13.972656 9.976562 14.210938 9.957031 C 14.199219 9.984375 14.125 9.996094 14.050781 10.011719 C 14.320312 9.964844 14.070312 10.109375 14.394531 10.046875 C 14.347656 10.023438 14.421875 9.996094 14.429688 9.980469 C 14.515625 10.007812 14.65625 10.03125 14.8125 10.046875 C 14.964844 10.066406 15.136719 10.074219 15.28125 10.082031 L 15.21875 10.136719 C 15.738281 10.210938 16.320312 10.261719 16.890625 10.40625 C 16.691406 10.328125 16.761719 10.238281 16.933594 10.269531 L 16.980469 10.375 C 17.105469 10.347656 16.8125 10.300781 17.054688 10.289062 C 17.265625 10.355469 17.171875 10.425781 17.042969 10.421875 L 17.308594 10.460938 C 17.316406 10.492188 17.253906 10.488281 17.226562 10.515625 C 17.351562 10.488281 17.644531 10.730469 17.824219 10.6875 L 17.828125 10.714844 C 18.117188 10.8125 18.324219 10.875 18.519531 10.941406 C 18.511719 10.953125 18.503906 10.964844 18.496094 10.972656 Z M 9.742188 25.613281 C 9.667969 25.621094 9.621094 25.625 9.589844 25.632812 L 9.539062 25.613281 C 9.601562 25.617188 9.667969 25.621094 9.742188 25.613281 Z M 8.953125 25.261719 L 9 25.328125 C 8.933594 25.316406 8.855469 25.300781 8.769531 25.28125 C 8.792969 25.265625 8.839844 25.257812 8.953125 25.261719 Z M 6.082031 24.445312 C 6.0625 24.4375 6.050781 24.433594 6.042969 24.425781 Z M 7.164062 24.726562 L 7.003906 24.800781 L 7.339844 24.796875 C 7.398438 24.84375 7.425781 24.917969 7.273438 24.894531 C 7.300781 24.910156 7.328125 24.921875 7.351562 24.933594 C 7.210938 24.945312 6.980469 24.886719 6.796875 24.863281 C 6.820312 24.804688 6.867188 24.792969 7.003906 24.792969 L 6.777344 24.746094 C 6.71875 24.765625 6.644531 24.765625 6.496094 24.746094 L 6.566406 24.683594 C 6.265625 24.625 5.945312 24.640625 5.570312 24.507812 C 5.535156 24.574219 5.835938 24.769531 5.417969 24.730469 C 5.410156 24.6875 5.410156 24.621094 5.519531 24.628906 C 5.484375 24.625 5.386719 24.632812 5.320312 24.601562 L 5.496094 24.570312 C 5.414062 24.539062 5.386719 24.546875 5.363281 24.558594 C 5.339844 24.570312 5.324219 24.585938 5.265625 24.570312 C 5.285156 24.519531 5.195312 24.515625 5.238281 24.480469 C 5.265625 24.480469 5.3125 24.519531 5.363281 24.507812 C 5.242188 24.472656 5.148438 24.417969 5.164062 24.378906 C 5.136719 24.40625 5.085938 24.4375 4.996094 24.425781 C 4.886719 24.40625 4.898438 24.390625 4.929688 24.375 C 4.960938 24.363281 5.003906 24.347656 4.988281 24.328125 C 4.933594 24.335938 4.898438 24.328125 4.855469 24.324219 C 4.851562 24.324219 4.84375 24.324219 4.835938 24.324219 C 4.875 24.320312 4.910156 24.316406 4.941406 24.3125 C 4.871094 24.316406 4.800781 24.316406 4.8125 24.324219 C 4.773438 24.324219 4.726562 24.324219 4.652344 24.339844 C 4.59375 24.324219 4.691406 24.308594 4.738281 24.292969 C 4.734375 24.292969 4.726562 24.292969 4.722656 24.292969 C 4.824219 24.292969 4.929688 24.292969 5.066406 24.292969 C 5.042969 24.304688 5.007812 24.308594 4.96875 24.3125 C 5.117188 24.304688 5.195312 24.324219 5.296875 24.351562 C 5.363281 24.367188 5.441406 24.382812 5.535156 24.390625 C 5.628906 24.402344 5.746094 24.402344 5.875 24.390625 C 5.960938 24.40625 5.949219 24.429688 5.929688 24.453125 C 5.910156 24.472656 5.886719 24.496094 5.984375 24.507812 C 6.097656 24.496094 6.183594 24.492188 6.257812 24.492188 C 6.375 24.679688 6.867188 24.632812 7.164062 24.726562 Z M 6.355469 24.492188 C 6.371094 24.492188 6.386719 24.492188 6.402344 24.492188 C 6.40625 24.5 6.410156 24.507812 6.410156 24.511719 L 6.28125 24.488281 C 6.308594 24.488281 6.332031 24.488281 6.355469 24.492188 Z M 6.355469 24.492188 " fill-opacity="1" fill-rule="nonzero"/></g></g></g><g clip-path="url(#759ad690cf)"><g clip-path="url(#5a6a644642)"><g clip-path="url(#b53f2307c2)"><path fill="#faf6f3" d="M 14.070312 22.925781 C 14.085938 22.921875 14.101562 22.914062 14.113281 22.910156 C 14.101562 22.914062 14.085938 22.921875 14.070312 22.925781 Z M 14.070312 22.925781 " fill-opacity="1" fill-rule="nonzero"/></g></g></g><g clip-path="url(#805823583b)"><g clip-path="url(#4bc1e07659)"><g clip-path="url(#3dce9be30c)"><path fill="#faf6f3" d="M 14.214844 14.410156 C 14.230469 14.40625 14.238281 14.398438 14.253906 14.394531 C 14.234375 14.390625 14.210938 14.390625 14.191406 14.394531 C 14.179688 14.40625 14.171875 14.417969 14.164062 14.425781 C 14.179688 14.421875 14.199219 14.414062 14.214844 14.410156 Z M 14.214844 14.410156 " fill-opacity="1" fill-rule="nonzero"/></g></g></g><g clip-path="url(#4b96c262bb)"><g clip-path="url(#72e530b846)"><g clip-path="url(#56410f1cae)"><path fill="#faf6f3" d="M 12.324219 10.132812 L 12.320312 10.113281 L 12.273438 10.140625 Z M 12.324219 10.132812 " fill-opacity="1" fill-rule="nonzero"/></g></g></g><g clip-path="url(#30871b1449)"><g clip-path="url(#d0a4d7896d)"><g clip-path="url(#148274fc93)"><path fill="#faf6f3" d="M 6.976562 25.152344 C 6.980469 25.160156 6.992188 25.171875 7.015625 25.179688 C 7.015625 25.175781 6.996094 25.164062 6.976562 25.152344 Z M 6.976562 25.152344 " fill-opacity="1" fill-rule="nonzero"/></g></g></g><g clip-path="url(#fc0c577d2b)"><g clip-path="url(#b5e589ab9c)"><g clip-path="url(#30e070c792)"><path fill="#faf6f3" d="M 8.453125 25.488281 L 8.660156 25.5625 C 8.570312 25.527344 8.507812 25.503906 8.453125 25.488281 Z M 8.453125 25.488281 " fill-opacity="1" fill-rule="nonzero"/></g></g></g><g clip-path="url(#5e85143c0a)"><g clip-path="url(#f32e59a800)"><g clip-path="url(#90ed7b4aea)"><path fill="#faf6f3" d="M 9.585938 25.773438 C 9.605469 25.761719 9.609375 25.753906 9.617188 25.746094 C 9.617188 25.742188 9.613281 25.742188 9.613281 25.742188 Z M 9.585938 25.773438 " fill-opacity="1" fill-rule="nonzero"/></g></g></g><g clip-path="url(#e6d8ce5000)"><g clip-path="url(#5329407440)"><g clip-path="url(#99e1c0d1e7)"><path fill="#faf6f3" d="M 6.128906 23.863281 C 6.136719 23.863281 6.144531 23.859375 6.15625 23.859375 C 6.238281 23.84375 6.195312 23.851562 6.128906 23.863281 Z M 6.128906 23.863281 " fill-opacity="1" fill-rule="nonzero"/></g></g></g><g clip-path="url(#a5b53ce3ce)"><g clip-path="url(#09595ec8aa)"><g clip-path="url(#afcccd68e9)"><path fill="#faf6f3" d="M 11.210938 23.449219 C 11.210938 23.449219 11.210938 23.449219 11.210938 23.453125 C 11.222656 23.449219 11.234375 23.449219 11.246094 23.445312 Z M 11.210938 23.449219 " fill-opacity="1" fill-rule="nonzero"/></g></g></g><g clip-path="url(#0d32489f00)"><g clip-path="url(#eeb55c54a2)"><g clip-path="url(#0eddd26c39)"><path fill="#faf6f3" d="M 7.652344 24.746094 L 7.675781 24.722656 C 7.667969 24.726562 7.65625 24.734375 7.652344 24.746094 Z M 7.652344 24.746094 " fill-opacity="1" fill-rule="nonzero"/></g></g></g><g clip-path="url(#c337d0284c)"><g clip-path="url(#9e05e7a5fd)"><g clip-path="url(#85865cff6e)"><path fill="#faf6f3" d="M 7.675781 24.722656 C 7.757812 24.703125 7.992188 24.882812 8.105469 24.867188 C 8 24.828125 7.851562 24.730469 7.699219 24.707031 Z M 7.675781 24.722656 " fill-opacity="1" fill-rule="nonzero"/></g></g></g><g clip-path="url(#a135b25e18)"><g clip-path="url(#cebb59daa2)"><g clip-path="url(#89449e4c32)"><path fill="#faf6f3" d="M 9.628906 22.089844 L 9.453125 22.1875 L 9.394531 22.226562 Z M 9.628906 22.089844 " fill-opacity="1" fill-rule="nonzero"/></g></g></g><g clip-path="url(#3988e44637)"><g clip-path="url(#a5f227a29e)"><g clip-path="url(#64df23a824)"><path fill="#faf6f3" d="M 13.011719 23.855469 L 12.945312 23.777344 C 12.839844 23.816406 12.835938 23.917969 13.011719 23.855469 Z M 13.011719 23.855469 " fill-opacity="1" fill-rule="nonzero"/></g></g></g><g clip-path="url(#80d7b67703)"><g clip-path="url(#0025a2dcd6)"><g clip-path="url(#584c1a37e5)"><path fill="#faf6f3" d="M 19.050781 21.613281 C 19.136719 21.613281 19.308594 21.539062 19.378906 21.445312 C 19.25 21.515625 19.109375 21.566406 19.050781 21.613281 Z M 19.050781 21.613281 " fill-opacity="1" fill-rule="nonzero"/></g></g></g><g clip-path="url(#e5e4d84831)"><g clip-path="url(#97ecfa503a)"><g clip-path="url(#5c94b0b99a)"><path fill="#faf6f3" d="M 14.089844 9.28125 C 14.007812 9.289062 13.925781 9.296875 13.839844 9.304688 C 13.878906 9.304688 13.917969 9.308594 13.957031 9.308594 Z M 14.089844 9.28125 " fill-opacity="1" fill-rule="nonzero"/></g></g></g></svg>