<svg xmlns="http://www.w3.org/2000/svg" xmlns:xlink="http://www.w3.org/1999/xlink" width="40" zoomAndPan="magnify" viewBox="0 0 30 30.000001" height="40" preserveAspectRatio="xMidYMid meet" version="1.0"><defs><clipPath id="1323bb2905"><path d="M 0.898438 0.675781 L 29.117188 0.675781 L 29.117188 28.246094 L 0.898438 28.246094 Z M 0.898438 0.675781 " clip-rule="nonzero"/></clipPath><clipPath id="df06646fdc"><path d="M 15 0.675781 L 18.761719 7.363281 L 26.332031 6.109375 L 23.40625 13.210938 L 29.101562 18.378906 L 21.738281 20.523438 L 21.265625 28.144531 L 15 23.757812 L 8.734375 28.144531 L 8.261719 20.523438 L 0.898438 18.378906 L 6.59375 13.210938 L 3.667969 6.109375 L 11.238281 7.363281 Z M 15 0.675781 " clip-rule="nonzero"/></clipPath><clipPath id="bccad18c6d"><path d="M 0.898438 0.675781 L 29.117188 0.675781 L 29.117188 28.246094 L 0.898438 28.246094 Z M 0.898438 0.675781 " clip-rule="nonzero"/></clipPath><clipPath id="282a6a409f"><path d="M 15 0.675781 L 18.761719 7.363281 L 26.332031 6.109375 L 23.40625 13.210938 L 29.101562 18.378906 L 21.738281 20.523438 L 21.265625 28.144531 L 15 23.757812 L 8.734375 28.144531 L 8.261719 20.523438 L 0.898438 18.378906 L 6.59375 13.210938 L 3.667969 6.109375 L 11.238281 7.363281 Z M 15 0.675781 " clip-rule="nonzero"/></clipPath><clipPath id="245bda4ebd"><rect x="0" width="30" y="0" height="29"/></clipPath></defs><g clip-path="url(#1323bb2905)"><g clip-path="url(#df06646fdc)"><g transform="matrix(1, 0, 0, 1, 0, 0.000000000000005718)"><g clip-path="url(#245bda4ebd)"><g clip-path="url(#bccad18c6d)"><g clip-path="url(#282a6a409f)"><path fill="#f3b819" d="M 0.898438 0.675781 L 29.117188 0.675781 L 29.117188 28.355469 L 0.898438 28.355469 Z M 0.898438 0.675781 " fill-opacity="1" fill-rule="nonzero"/></g></g></g></g></g></g></svg>